<svg width="0" height="0" class="hidden">
  <symbol xmlns="http://www.w3.org/2000/svg" viewBox="0 0 477.175 477.175" id="back">
    <path d="M145.188 238.575l215.5-215.5c5.3-5.3 5.3-13.8 0-19.1s-13.8-5.3-19.1 0l-225.1 225.1c-5.3 5.3-5.3 13.8 0 19.1l225.1 225c2.6 2.6 6.1 4 9.5 4s6.9-1.3 9.5-4c5.3-5.3 5.3-13.8 0-19.1l-215.4-215.5z"></path>
  </symbol>
  <symbol viewBox="0 1 511 511.999" xmlns="http://www.w3.org/2000/svg" id="home">
    <path d="M498.7 222.695c-.016-.011-.028-.027-.04-.039L289.805 13.81C280.902 4.902 269.066 0 256.477 0c-12.59 0-24.426 4.902-33.332 13.809L14.398 222.55c-.07.07-.144.144-.21.215-18.282 18.386-18.25 48.218.09 66.558 8.378 8.383 19.44 13.235 31.273 13.746.484.047.969.07 1.457.07h8.32v153.696c0 30.418 24.75 55.164 55.168 55.164h81.711c8.285 0 15-6.719 15-15V376.5c0-13.879 11.293-25.168 25.172-25.168h48.195c13.88 0 25.168 11.29 25.168 25.168V497c0 8.281 6.715 15 15 15h81.711c30.422 0 55.168-24.746 55.168-55.164V303.14h7.719c12.586 0 24.422-4.903 33.332-13.813 18.36-18.367 18.367-48.254.027-66.633zm-21.243 45.422a17.03 17.03 0 0 1-12.117 5.024h-22.72c-8.285 0-15 6.714-15 15v168.695c0 13.875-11.289 25.164-25.168 25.164h-66.71V376.5c0-30.418-24.747-55.168-55.169-55.168H232.38c-30.422 0-55.172 24.75-55.172 55.168V482h-66.71c-13.876 0-25.169-11.29-25.169-25.164V288.14c0-8.286-6.715-15-15-15H48a13.9 13.9 0 0 0-.703-.032c-4.469-.078-8.66-1.851-11.8-4.996-6.68-6.68-6.68-17.55 0-24.234.003 0 .003-.004.007-.008l.012-.012L244.363 35.02A17.003 17.003 0 0 1 256.477 30c4.574 0 8.875 1.781 12.113 5.02l208.8 208.796.098.094c6.645 6.692 6.633 17.54-.031 24.207zm0 0"></path>
  </symbol>
   <symbol viewBox="-21 -47 682.667 682" xmlns="http://www.w3.org/2000/svg" id="comment">
    <path d="M552.012-1.332H87.988C39.473-1.332 0 38.133 0 86.656V370.63c0 48.414 39.3 87.816 87.676 87.988V587.48l185.191-128.863h279.145c48.515 0 87.988-39.472 87.988-87.988V86.656c0-48.523-39.473-87.988-87.988-87.988zm50.488 371.96c0 27.837-22.648 50.49-50.488 50.49h-290.91l-135.926 94.585v-94.586H87.988c-27.84 0-50.488-22.652-50.488-50.488V86.656c0-27.843 22.648-50.488 50.488-50.488h464.024c27.84 0 50.488 22.645 50.488 50.488zm0 0"></path>
    <path d="M171.293 131.172h297.414v37.5H171.293zm0 80h297.414v37.5H171.293zm0 80h297.414v37.5H171.293zm0 0"></path>
  </symbol>
  <symbol viewBox="-49 -17 560 560" xmlns="http://www.w3.org/2000/svg" id="contact">
    <path d="M397.668 0H102.293c-34.512.016-62.488 27.988-62.5 62.5v27H10.418c-6.906 0-12.5 5.598-12.5 12.5s5.594 12.5 12.5 12.5h29.246v82H10.418c-6.906 0-12.5 5.594-12.5 12.5 0 6.902 5.594 12.5 12.5 12.5h29.246v82H10.418c-6.906 0-12.5 5.598-12.5 12.5 0 6.906 5.594 12.5 12.5 12.5h29.246v82H10.418c-6.906 0-12.5 5.598-12.5 12.5s5.594 12.5 12.5 12.5h29.246v27c.016 34.512 27.988 62.484 62.5 62.5H397.54c34.512-.016 62.492-27.988 62.5-62.5v-400C460.09 28.012 432.156.023 397.668 0zm37.5 462.5c-.063 20.684-16.816 37.441-37.5 37.5H102.293c-20.684-.059-37.441-16.816-37.5-37.5v-27h29.246c6.906 0 12.5-5.598 12.5-12.5s-5.594-12.5-12.5-12.5H64.793v-82h29.246c6.906 0 12.5-5.594 12.5-12.5 0-6.902-5.594-12.5-12.5-12.5H64.793v-82h29.246c6.906 0 12.5-5.598 12.5-12.5 0-6.906-5.594-12.5-12.5-12.5H64.793v-82h29.246c6.906 0 12.5-5.598 12.5-12.5s-5.594-12.5-12.5-12.5H64.793v-27c.059-20.684 16.816-37.441 37.5-37.5h295.375c20.684.059 37.437 16.816 37.5 37.5zm0 0"></path>
    <path d="M249.918 258.875c33.48 0 60.625-27.14 60.625-60.625s-27.145-60.625-60.625-60.625c-33.484 0-60.625 27.14-60.625 60.625.031 33.469 27.152 60.594 60.625 60.625zm0-96.375c19.672 0 35.625 15.953 35.625 35.625s-15.953 35.625-35.625 35.625c-19.676 0-35.625-15.953-35.625-35.625.035-19.656 15.96-35.59 35.625-35.625zm0 116.5c-52 0-92.754 42.125-92.754 96 .02 6.895 5.606 12.48 12.5 12.5h160.504c6.894-.02 12.48-5.605 12.5-12.5 0-53.875-40.754-96-92.75-96zm-66.754 83.5c5.379-34.125 32.254-58.5 66.754-58.5 34.496 0 61.5 24.375 66.75 58.5zm0 0"></path>
  </symbol>
</svg>